<svg width="106" height="16" viewBox="0 0 106 16" fill="none" xmlns="http://www.w3.org/2000/svg">
<g id="Arrow">
<path id="Vector 4" d="M96.6374 2.17513C98.5949 2.92252 106.495 9.212 103.596 9.88012C98.8723 10.9689 93.8097 11.1046 89.3052 11.9445" stroke="#34C759" stroke-width="3" stroke-linecap="round"/>
<path id="Vector 5" d="M8.91456 2.56296C7.11808 3.36613 1.3196 10.527 2.72069 11.0614C6.63397 12.5541 11.547 10.9422 15.5372 10.2338" stroke="#34C759" stroke-width="3" stroke-linecap="round"/>
<path id="Vector 6" d="M9.78296 7.84584C11.5139 6.54765 14.6355 6.18543 16.6509 5.66986C19.1783 5.02332 21.7571 4.66883 24.3008 4.10587C29.7109 2.90856 35.3684 2.4853 40.8927 2.09988C53.5829 1.21452 65.8172 2.67717 78.3604 4.41187C83.7607 5.15871 89.0481 6.56163 94.4083 7.47184C95.8779 7.7214 100.319 8.15184 98.8282 8.15184" stroke="#34C759" stroke-width="3" stroke-linecap="round"/>
</g>
</svg>
